<?xml version="1.0" encoding="UTF-8" standalone="no"?>
<svg
   xmlns:dc="http://purl.org/dc/elements/1.1/"
   xmlns:cc="http://creativecommons.org/ns#"
   xmlns:rdf="http://www.w3.org/1999/02/22-rdf-syntax-ns#"
   xmlns:svg="http://www.w3.org/2000/svg"
   xmlns="http://www.w3.org/2000/svg"
   xmlns:sodipodi="http://sodipodi.sourceforge.net/DTD/sodipodi-0.dtd"
   xmlns:inkscape="http://www.inkscape.org/namespaces/inkscape"
   fill="#000000"
   height="800px"
   width="800px"
   version="1.1"
   id="Layer_1"
   viewBox="0 0 455 455"
   xml:space="preserve"
   sodipodi:docname="linkedin.svg"
   inkscape:version="1.0.2 (e86c870879, 2021-01-15, custom)"><metadata
   id="metadata13"><rdf:RDF><cc:Work
       rdf:about=""><dc:format>image/svg+xml</dc:format><dc:type
         rdf:resource="http://purl.org/dc/dcmitype/StillImage" /></cc:Work></rdf:RDF></metadata><defs
   id="defs11" /><sodipodi:namedview
   pagecolor="#ffffff"
   bordercolor="#666666"
   borderopacity="1"
   objecttolerance="10"
   gridtolerance="10"
   guidetolerance="10"
   inkscape:pageopacity="0"
   inkscape:pageshadow="2"
   inkscape:window-width="1360"
   inkscape:window-height="705"
   id="namedview9"
   showgrid="false"
   inkscape:zoom="0.4529759"
   inkscape:cx="384.2967"
   inkscape:cy="302.97144"
   inkscape:window-x="-8"
   inkscape:window-y="-8"
   inkscape:window-maximized="1"
   inkscape:current-layer="Layer_1"
   inkscape:document-rotation="0" />

<path
   style="fill:#ffffff;stroke-width:0.396908;fill-opacity:1"
   d="m 95.581518,456.21404 c -14.883,-0.81528 -22.66619,-2.1125 -32.9433,-5.49066 -18.77026,-6.16988 -34.16357,-17.95151 -45.23457,-34.62135 -6.02717,-9.0752 -9.4130199,-16.92328 -12.2983499,-28.50638 -3.6086,-14.48663 -3.58699,-13.52961 -3.58496,-158.76288 10e-4,-124.94644 0.0861,-133.78803 1.39911,-146.65721 2.83249,-27.762242 16.6964299,-51.159676 39.1505099,-66.072201 9.61832,-6.3878572 18.37157,-10.0230042 31.0863,-12.9098782 5.12419,-1.163442 12.92357,-2.021537 23.41752,-2.57641797 10.177422,-0.538147 255.184202,-0.538412 265.729402,-2.93e-4 16.51378,0.84270597 23.87326,2.02852197 34.72497,5.59512497 26.06398,8.5664332 46.62904,29.2412962 55.22791,55.5229462 3.24037,9.903889 4.42554,17.345169 5.31008,33.340209 0.54092,9.78102 0.52717,255.20129 -0.0153,265.92782 -0.82842,16.39441 -2.02686,23.881 -5.5276,34.53092 -8.64451,26.29872 -29.19318,46.7866 -55.58648,55.42198 -7.65069,2.50314 -14.00023,3.76082 -24.21137,4.79556 -5.96258,0.60421 -18.36464,0.66974 -138.52058,0.7317 -72.58441,0.0373 -134.740082,-0.0837 -138.123712,-0.26899 z M 153.33151,182.98999 96.375328,182.78628 v 183.77854 l 56.956182,-0.2037 z m 86.72423,134.73436 c 0,-31.92762 0.14646,-50.14863 0.423,-52.62875 1.13456,-10.17479 4.58496,-17.83379 10.88885,-24.17041 2.73474,-2.74895 4.31653,-3.9729 6.74743,-5.22098 6.63549,-3.40686 13.01454,-4.71552 21.3677,-4.38364 6.13824,0.24388 10.02718,1.15257 14.72942,3.44169 8.05976,3.92363 13.32779,10.66211 15.99901,20.46484 l 1.08157,3.96908 0.11543,53.68435 0.11538,53.6844 55.74093,-0.20381 0.12003,-59.73454 c 0.0865,-43.05724 -0.008,-60.95347 -0.33727,-64.10052 -0.91273,-8.71573 -3.65657,-17.43746 -8.61576,-27.38659 -5.88204,-11.80067 -10.73886,-17.19519 -22.32418,-24.79583 -12.55877,-8.23928 -27.62775,-11.91571 -44.15211,-10.77194 -10.10732,0.69959 -18.5743,2.90603 -27.48964,7.16361 -5.70938,2.72655 -9.11926,4.78223 -13.89175,8.3748 -3.41797,2.57292 -9.73576,8.73069 -12.40544,12.09121 l -1.26124,1.58763 -0.0133,-12.99871 -0.0133,-12.9987 h -52.39175 l 0.2646,183.50341 c 0,0 34.34676,0.26463 55.30241,0.26463 z M 134.87533,154.27986 c 14.28936,-4.67142 23.37704,-18.04819 22.50062,-33.12015 -0.29488,-5.071 -1.02643,-7.83978 -3.28969,-12.45082 -5.98142,-12.18623 -19.62015,-19.72064 -32.66888,-18.0472 -15.72122,2.01616 -27.178902,13.41953 -29.087422,28.94953 -1.6377,13.32623 5.77083,26.77187 18.135572,32.91403 5.19792,2.58205 8.59919,3.27552 15.28093,3.11555 4.71467,-0.11286 5.81114,-0.27632 9.12887,-1.36094 z"
   id="path852"
   sodipodi:nodetypes="cssscsssssssscsssscccccccsssssssccccssssssssccccccsssssssss" /></svg>
